<?xml version="1.0" encoding="utf-8"?>
<!-- Generator: Adobe Illustrator 22.1.0, SVG Export Plug-In . SVG Version: 6.00 Build 0)  -->
<svg version="1.1" id="Layer_1" xmlns="http://www.w3.org/2000/svg" xmlns:xlink="http://www.w3.org/1999/xlink" x="0px" y="0px"
	 viewBox="0 0 95 69.5" style="enable-background:new 0 0 95 69.5;" xml:space="preserve">
<style type="text/css">
	.st0{fill:none;stroke:#000000;stroke-miterlimit:10;}
</style>
<path class="st0" d="M70.7,13.5v7.8H74l-3.3,6.1c-0.7,1.5-2,4-2.2,5.2h-0.2c-0.2-1-1.5-3.8-1.9-4.9l-3.5-6.4h3.2v-7.8H54.5h-9.4
	h-8.9v7.8h4.1v14.5L25.5,13.5H8v7.8h3.5v26.8H8V56h18.7v-7.8h-4.7V32.8L37.5,56h13.1V25.3l9.4,15.7v7.2h-3.5V56h19.5v-7.9h-3.4V41
	l11.2-19.8H87v-7.8H70.7z"/>
</svg>
